<?xml version="1.0" encoding="UTF-8" standalone="no"?>
<svg
   xmlns:dc="http://purl.org/dc/elements/1.1/"
   xmlns:cc="http://creativecommons.org/ns#"
   xmlns:rdf="http://www.w3.org/1999/02/22-rdf-syntax-ns#"
   xmlns:svg="http://www.w3.org/2000/svg"
   xmlns="http://www.w3.org/2000/svg"
   viewBox="0 0 419.52759 297.63779"
   id="svg2"
   height="200"
   width="200"
   version="1.1">
  <metadata
     id="metadata18">
    <rdf:RDF>
      <cc:Work
         rdf:about="">
        <dc:format>image/svg+xml</dc:format>
        <dc:type
           rdf:resource="http://purl.org/dc/dcmitype/StillImage" />
      </cc:Work>
    </rdf:RDF>
  </metadata>
  <defs
     id="defs16" />
  <g
     id="g4">
    <path
       id="path6"
       style="fill:#e95f06;fill-rule:evenodd"
       d="m 78.9588,185.5056 -0.3048,-78.4185 23.9577,-6.7507 -0.1479,15.5228 12.2899,4.6995 0.5533,13.6535 -12.9157,-3.6904 -12.5465,4.2438 0.1615,56.2753 8.3449,4.2071 4.5133,-3.1464 -0.0115,-59.4581 27.3994,8.3031 -0.3692,39.9463 -31.5969,19.382 -32.0473,-17.2139 -0.0924,-23.8942 9.0248,-3.1385 0.1423,27.5226 3.6451,1.9547 z" />
    <path
       id="path8"
       style="fill:#ffffff;fill-rule:evenodd"
       d="m 128.8449,141.8759 -2.4171,-0.4937 0,7.017 2.4171,0.4562 0,-6.9795 z m 0,8.425 -2.4171,-0.3012 0,7.0171 2.4171,0.2636 0,-6.9795 z" />
    <path
       id="path10"
       style="fill:#ffffff;fill-rule:evenodd"
       d="m 80.3304,108.3717 2.417,-0.4937 0,7.0171 -2.417,0.4561 0,-6.9795 z m 0,8.425 2.417,-0.3011 0,7.017 -2.417,0.2636 0,-6.9795 z m 0,8.4181 2.4055,-0.2461 0,7.3628 -2.4055,0.2113 0,-7.328 z" />
    <path
       id="path12"
       style="fill:#000000;fill-rule:evenodd"
       d="m 168.7521,145.8573 0,11.095 -15.112,0 0,-11.095 -5.1171,0 0,28.6942 5.1171,0 0,-13.0558 15.112,0 0,13.0558 5.0695,0 0,-28.6942 -5.0695,0 z m 21.3772,0 -12.721,28.6942 5.404,0 2.3434,-5.2605 15.3034,0 2.3913,5.2605 5.4997,0 -12.721,-28.6942 -5.4998,0 z m 2.3434,5.165 0.5738,0 5.4997,13.6298 -11.4298,0 5.3563,-13.6298 z m 22.6205,9.1343 c 0,-2.9171 1.1477,-5.5953 2.9171,-7.3649 1.8173,-1.8173 4.3521,-2.8693 7.1258,-2.8693 3.3477,0 6.0259,1.1957 8.5603,3.4912 l 3.0609,-3.4433 c -3.3957,-3.1563 -6.791,-4.6389 -11.6212,-4.6389 -4.4476,0 -8.2735,1.626 -10.9038,4.2563 -2.6782,2.7257 -4.2562,6.4082 -4.2562,10.5689 0,4.2563 1.578,7.9387 4.3517,10.6648 2.7261,2.6303 6.4086,4.2562 10.8083,4.2562 4.8302,0 8.2255,-1.4349 11.6212,-4.7347 l -3.0609,-3.3953 c -2.5344,2.2476 -5.2126,3.4911 -8.5603,3.4911 -2.7737,0 -5.404,-1.1477 -7.2692,-3.0608 -1.6739,-1.6739 -2.7737,-4.1607 -2.7737,-7.2213 z m 24.1985,-9.7081 10.6648,0 0,24.103 5.0213,0 0,-24.103 10.6648,0 0,-4.5912 -26.3509,0 0,4.5912 z m 54.6143,5.9301 c 0,-2.6782 -0.9085,-4.8781 -2.391,-6.6954 -2.0084,-2.391 -5.069,-3.8259 -8.4167,-3.8259 l -13.9167,0 0,28.6942 5.2127,0 0,-7.7952 8.704,0 c 2.9651,0 5.6909,-1.0999 7.6995,-3.013 1.8649,-1.8173 3.1082,-4.4476 3.1082,-7.3647 z m -10.6163,5.7388 -8.8954,0 0,-11.5733 8.5127,0 c 1.8173,0 3.3953,0.7174 4.3996,1.9131 0.9567,1.004 1.4349,2.391 1.4349,3.9214 0,1.2912 -0.6695,2.8216 -1.4349,3.9215 -0.9085,1.0522 -2.4389,1.8173 -4.0169,1.8173 z m 28.5981,-16.786 c -4.5433,0 -8.4648,1.7694 -11.1429,4.591 -2.5345,2.6782 -4.017,6.3128 -4.017,10.2821 0,3.826 1.578,7.5082 3.9693,10.0908 2.6303,2.8216 6.6473,4.7823 11.1906,4.7823 4.5434,0 8.3214,-1.6738 11.0472,-4.4475 2.5827,-2.6782 4.0652,-6.3128 4.0652,-10.4256 0,-4.1128 -1.5304,-7.8911 -4.2565,-10.6648 -2.6303,-2.6302 -6.4083,-4.2083 -10.8559,-4.2083 z m -10.0428,14.8731 c 0,-2.9174 1.0519,-5.4042 2.7258,-7.1736 1.8173,-1.9607 4.4954,-3.1085 7.317,-3.1085 2.7737,0 5.404,1.1478 7.2692,3.0606 1.626,1.7218 2.7261,4.2565 2.7261,7.2215 0,2.9172 -1.0522,5.404 -2.6782,7.1734 -1.8173,1.961 -4.4475,3.1087 -7.3171,3.1087 -2.9171,0 -5.5474,-1.1956 -7.317,-3.1563 -1.6739,-1.7697 -2.7258,-4.2565 -2.7258,-7.1258 z m 33.9548,-14.3472 -4.9737,0 0,28.6942 4.6868,0 16.4991,-20.9466 0,20.9466 4.8778,0 0,-28.6942 -4.6865,0 -16.4035,20.899 0,-20.899 z m 12.147,-8.5604 c -0.3348,0.813 -0.7651,1.4346 -1.2912,1.8652 -0.6216,0.5261 -1.3867,0.813 -2.3434,0.813 -1.0043,0 -1.7694,-0.3348 -2.391,-0.9088 -0.5261,-0.4782 -0.9088,-1.0519 -1.2436,-1.7694 l -3.4911,1.6739 c 0.5261,1.4346 1.5304,2.5823 2.5826,3.3953 1.2433,1.0043 2.8693,1.4828 4.4955,1.4828 1.6739,0 3.3474,-0.5261 4.591,-1.4828 1.0522,-0.813 2.0562,-1.9607 2.5824,-3.3953 l -3.4912,-1.6739 z" />
  </g>
</svg>
