<svg width="300" height="100" xmlns="http://www.w3.org/2000/svg">
   <path stroke="null" fill="#000000" fill-rule="evenodd" d="m13.812201,85.169197l-0.3048,-78.4185l23.9577,-6.7507l-0.1479,15.5228l12.2899,4.6995l0.5533,13.6535l-12.9157,-3.6904l-12.5465,4.2438l0.1615,56.2753l8.3449,4.2071l4.5133,-3.1464l-0.0115,-59.4581l27.3994,8.3031l-0.3692,39.9463l-31.5969,19.382l-32.0473,-17.2139l-0.0924,-23.8942l9.0248,-3.1385l0.1423,27.5226l3.6451,1.9547z" id="path6"/>
   <path stroke="null" fill="#ffffff" fill-rule="evenodd" d="m63.698301,41.539497l-2.4171,-0.4937l0,7.017l2.4171,0.4562l0,-6.9795zm0,8.425l-2.4171,-0.3012l0,7.0171l2.4171,0.2636l0,-6.9795z" id="path8"/>
   <path stroke="null" fill="#ffffff" fill-rule="evenodd" d="m15.183801,8.035297l2.417,-0.4937l0,7.0171l-2.417,0.4561l0,-6.9795zm0,8.425l2.417,-0.3011l0,7.017l-2.417,0.2636l0,-6.9795zm0,8.4181l2.4055,-0.2461l0,7.3628l-2.4055,0.2113l0,-7.328z" id="path10"/>
   <path stroke="null" fill="#000000" fill-rule="evenodd" d="m103.6055,45.5209l0,11.095l-15.112,0l0,-11.095l-5.1171,0l0,28.6942l5.1171,0l0,-13.0558l15.112,0l0,13.0558l5.0695,0l0,-28.6942l-5.0695,0zm21.3772,0l-12.721,28.6942l5.404,0l2.3434,-5.2605l15.3034,0l2.3913,5.2605l5.4997,0l-12.721,-28.6942l-5.4998,0zm2.3434,5.165l0.5738,0l5.4997,13.6298l-11.4298,0l5.3563,-13.6298zm22.6205,9.1343c0,-2.9171 1.1477,-5.5953 2.9171,-7.3649c1.8173,-1.8173 4.3521,-2.8693 7.1258,-2.8693c3.3477,0 6.0259,1.1957 8.5603,3.4912l3.0609,-3.4433c-3.3957,-3.1563 -6.791,-4.6389 -11.6212,-4.6389c-4.4476,0 -8.2735,1.626 -10.9038,4.2563c-2.6782,2.7257 -4.2562,6.4082 -4.2562,10.5689c0,4.2563 1.578,7.9387 4.3517,10.6648c2.7261,2.6303 6.4086,4.2562 10.8083,4.2562c4.8302,0 8.2255,-1.4349 11.6212,-4.7347l-3.0609,-3.3953c-2.5344,2.2476 -5.2126,3.4911 -8.5603,3.4911c-2.7737,0 -5.404,-1.1477 -7.2692,-3.0608c-1.6739,-1.6739 -2.7737,-4.1607 -2.7737,-7.2213zm24.1985,-9.7081l10.6648,0l0,24.103l5.0213,0l0,-24.103l10.6648,0l0,-4.5912l-26.3509,0l0,4.5912zm54.6143,5.9301c0,-2.6782 -0.9085,-4.8781 -2.391,-6.6954c-2.0084,-2.391 -5.069,-3.8259 -8.4167,-3.8259l-13.9167,0l0,28.6942l5.2127,0l0,-7.7952l8.704,0c2.9651,0 5.6909,-1.0999 7.6995,-3.013c1.8649,-1.8173 3.1082,-4.4476 3.1082,-7.3647zm-10.6163,5.7388l-8.8954,0l0,-11.5733l8.5127,0c1.8173,0 3.3953,0.7174 4.3996,1.9131c0.9567,1.004 1.4349,2.391 1.4349,3.9214c0,1.2912 -0.6695,2.8216 -1.4349,3.9215c-0.9085,1.0522 -2.4389,1.8173 -4.0169,1.8173zm28.5981,-16.786c-4.5433,0 -8.4648,1.7694 -11.1429,4.591c-2.5345,2.6782 -4.017,6.3128 -4.017,10.2821c0,3.826 1.578,7.5082 3.9693,10.0908c2.6303,2.8216 6.6473,4.7823 11.1906,4.7823c4.5434,0 8.3214,-1.6738 11.0472,-4.4475c2.5827,-2.6782 4.0652,-6.3128 4.0652,-10.4256c0,-4.1128 -1.5304,-7.8911 -4.2565,-10.6648c-2.6303,-2.6302 -6.4083,-4.2083 -10.8559,-4.2083zm-10.0428,14.8731c0,-2.9174 1.0519,-5.4042 2.7258,-7.1736c1.8173,-1.9607 4.4954,-3.1085 7.317,-3.1085c2.7737,0 5.404,1.1478 7.2692,3.0606c1.626,1.7218 2.7261,4.2565 2.7261,7.2215c0,2.9172 -1.0522,5.404 -2.6782,7.1734c-1.8173,1.961 -4.4475,3.1087 -7.3171,3.1087c-2.9171,0 -5.5474,-1.1956 -7.317,-3.1563c-1.6739,-1.7697 -2.7258,-4.2565 -2.7258,-7.1258zm33.9548,-14.3472l-4.9737,0l0,28.6942l4.6868,0l16.4991,-20.9466l0,20.9466l4.8778,0l0,-28.6942l-4.6865,0l-16.4035,20.899l0,-20.899zm12.147,-8.5604c-0.3348,0.813 -0.7651,1.4346 -1.2912,1.8652c-0.6216,0.5261 -1.3867,0.813 -2.3434,0.813c-1.0043,0 -1.7694,-0.3348 -2.391,-0.9088c-0.5261,-0.4782 -0.9088,-1.0519 -1.2436,-1.7694l-3.4911,1.6739c0.5261,1.4346 1.5304,2.5823 2.5826,3.3953c1.2433,1.0043 2.8693,1.4828 4.4955,1.4828c1.6739,0 3.3474,-0.5261 4.591,-1.4828c1.0522,-0.813 2.0562,-1.9607 2.5824,-3.3953l-3.4912,-1.6739z" id="path12"/>

  <path d="m5.5,123.050003c2,-2 6.003469,-1.666885 22,-2c24.015617,-0.500107 55.090515,-0.667831 109,-5c19.043579,-1.530342 31,-2 34,-2c1,0 1,2 -4,14l-3,7l0,5l0,1" id="svg_3" fill-opacity="null" stroke-opacity="null" stroke-width="null" stroke="null" fill="none"/>
</svg>