<?xml version="1.0" encoding="UTF-8" standalone="no"?>
<svg
   xmlns:dc="http://purl.org/dc/elements/1.1/"
   xmlns:cc="http://creativecommons.org/ns#"
   xmlns:rdf="http://www.w3.org/1999/02/22-rdf-syntax-ns#"
   xmlns:svg="http://www.w3.org/2000/svg"
   xmlns="http://www.w3.org/2000/svg"
   viewBox="0 0 419.52759 297.63779"
   id="svg2"
   height="297.63779"
   width="419.52759"
   version="1.1">
  <metadata
     id="metadata18">
    <rdf:RDF>
      <cc:Work
         rdf:about="">
        <dc:format>image/svg+xml</dc:format>
        <dc:type
           rdf:resource="http://purl.org/dc/dcmitype/StillImage" />
      </cc:Work>
    </rdf:RDF>
  </metadata>
  <defs
     id="defs16" />
  <g
     id="g4">
    <path
       id="path6"
       style="fill:#000000;fill-rule:evenodd"
       d="m 76.0846,185.308 -0.3048,-78.4184 23.9577,-6.7507 -0.1479,15.5228 12.2899,4.6994 0.5533,13.6536 -12.9157,-3.6904 -12.5465,4.2437 0.1615,56.2753 8.3449,4.2071 4.5133,-3.1465 -0.0115,-59.4579 27.3994,8.303 -0.3692,39.9463 -31.5969,19.382 -32.0473,-17.2139 -0.0924,-23.8942 9.0248,-3.1384 0.1423,27.5225 3.6451,1.9547 z" />
    <path
       id="path8"
       style="fill:#ffffff;fill-rule:evenodd"
       d="m 125.9707,141.6783 -2.4171,-0.4937 0,7.0171 2.4171,0.4561 0,-6.9795 z m 0,8.425 -2.4171,-0.3011 0,7.017 2.4171,0.2636 0,-6.9795 z" />
    <path
       id="path10"
       style="fill:#ffffff;fill-rule:evenodd"
       d="m 77.4562,108.1742 2.417,-0.4937 0,7.017 -2.417,0.4562 0,-6.9795 z m 0,8.425 2.417,-0.3011 0,7.017 -2.417,0.2636 0,-6.9795 z m 0,8.4181 2.4055,-0.2461 0,7.3628 -2.4055,0.2113 0,-7.328 z" />
    <path
       id="path12"
       style="fill:#000000;fill-rule:evenodd"
       d="m 165.8781,145.66 0,11.0951 -15.1124,0 0,-11.0951 -5.1171,0 0,28.694 5.1171,0 0,-13.0559 15.1124,0 0,13.0559 5.0692,0 0,-28.694 -5.0692,0 z m 21.3772,0 -12.7211,28.694 5.404,0 2.3434,-5.2606 15.3034,0 2.391,5.2606 5.4998,0 -12.721,-28.694 -5.4995,0 z m 2.3431,5.165 0.574,0 5.4998,13.6295 -11.4299,0 5.3561,-13.6295 z m 22.6207,9.1341 c 0,-2.9172 1.1478,-5.5954 2.9172,-7.3647 1.8173,-1.8173 4.3517,-2.8695 7.1257,-2.8695 3.3474,0 6.0256,1.1956 8.5604,3.4911 l 3.0605,-3.4432 c -3.3953,-3.1564 -6.7909,-4.6389 -11.6209,-4.6389 -4.4475,0 -8.2735,1.6259 -10.9037,4.2562 -2.6782,2.7261 -4.2563,6.4085 -4.2563,10.569 0,4.2562 1.5781,7.9387 4.3518,10.6647 2.7261,2.6303 6.4083,4.2563 10.8082,4.2563 4.83,0 8.2256,-1.4347 11.6209,-4.7345 l -3.0605,-3.3956 c -2.5348,2.2476 -5.213,3.4912 -8.5604,3.4912 -2.774,0 -5.4042,-1.1478 -7.2691,-3.0606 -1.6739,-1.6739 -2.7738,-4.1607 -2.7738,-7.2215 z m 24.1986,-9.7081 10.6645,0 0,24.103 5.0215,0 0,-24.103 10.6646,0 0,-4.591 -26.3506,0 0,4.591 z m 54.6142,5.93 c 0,-2.6781 -0.9088,-4.8778 -2.3913,-6.6951 -2.0083,-2.3913 -5.0692,-3.8259 -8.4169,-3.8259 l -13.9164,0 0,28.694 5.2126,0 0,-7.7953 8.7038,0 c 2.9651,0 5.6911,-1.0999 7.6998,-3.0127 1.8649,-1.8173 3.1084,-4.4475 3.1084,-7.365 z m -10.6168,5.7388 -8.8952,0 0,-11.573 8.5128,0 c 1.8173,0 3.3953,0.7171 4.3996,1.9128 0.9564,1.0043 1.4346,2.391 1.4346,3.9214 0,1.2912 -0.6695,2.8216 -1.4346,3.9215 -0.9088,1.0522 -2.4389,1.8173 -4.0172,1.8173 z m 28.5984,-16.7859 c -4.5434,0 -8.4648,1.7693 -11.143,4.591 -2.5344,2.6781 -4.017,6.3127 -4.017,10.2821 0,3.8259 1.5781,7.5081 3.9694,10.0907 2.6303,2.8216 6.6472,4.7824 11.1906,4.7824 4.5431,0 8.3211,-1.6739 11.0472,-4.4476 2.5824,-2.6782 4.0649,-6.3128 4.0649,-10.4255 0,-4.1128 -1.5305,-7.8908 -4.2562,-10.6645 -2.6303,-2.6303 -6.4083,-4.2086 -10.8559,-4.2086 z m -10.0429,14.8731 c 0,-2.9172 1.052,-5.404 2.7258,-7.1734 1.8173,-1.961 4.4955,-3.1087 7.3171,-3.1087 2.7737,0 5.404,1.1477 7.2692,3.0608 1.6259,1.7215 2.7258,4.2562 2.7258,7.2213 0,2.9171 -1.0522,5.4039 -2.6782,7.1736 -1.8173,1.9607 -4.4476,3.1085 -7.3168,3.1085 -2.9174,0 -5.5477,-1.1957 -7.3171,-3.1564 -1.6738,-1.7694 -2.7258,-4.2562 -2.7258,-7.1257 z m 33.9546,-14.347 -4.9737,0 0,28.694 4.6865,0 16.4991,-20.9467 0,20.9467 4.8781,0 0,-28.694 -4.6868,0 -16.4032,20.8987 0,-20.8987 z m 12.147,-8.5604 c -0.3348,0.813 -0.7651,1.4346 -1.2912,1.8652 -0.6216,0.5258 -1.387,0.813 -2.3434,0.813 -1.0043,0 -1.7694,-0.3348 -2.391,-0.9088 -0.5261,-0.4782 -0.9088,-1.0519 -1.2436,-1.7694 l -3.4911,1.6739 c 0.5261,1.4346 1.5304,2.5823 2.5826,3.3953 1.2433,1.0043 2.8692,1.4825 4.4952,1.4825 1.6739,0 3.3477,-0.5261 4.591,-1.4825 1.0522,-0.813 2.0565,-1.9607 2.5826,-3.3953 l -3.4911,-1.6739 z" />
  </g>
</svg>
