<?xml version="1.0" encoding="UTF-8" standalone="no"?>
<svg
   version="1.1"
   width="178.88161"
   height="278.86938"
   id="svg4"
   viewBox="0 0 178.88161 278.86938"
   sodipodi:docname="727e00ca3e74c282c17c85246eddf005.cdr"
   xmlns:inkscape="http://www.inkscape.org/namespaces/inkscape"
   xmlns:sodipodi="http://sodipodi.sourceforge.net/DTD/sodipodi-0.dtd"
   xmlns="http://www.w3.org/2000/svg"
   xmlns:svg="http://www.w3.org/2000/svg">
  <defs
     id="defs8" />
  <sodipodi:namedview
     id="namedview6"
     pagecolor="#ffffff"
     bordercolor="#666666"
     borderopacity="1.0"
     inkscape:pageshadow="2"
     inkscape:pageopacity="0.0"
     inkscape:pagecheckerboard="0" />
  <path
     d="M 35.7516,237.6571 34.9014,18.8376 101.7538,0 l -0.4146,43.3127 34.294,13.1149 1.546,38.0995 -36.0409,-10.2979 -35.0107,11.8422 0.4484,157.0325 23.2858,11.7361 12.5975,-8.776 -0.0337,-165.9145 76.456,23.1686 -1.0317,111.4683 -88.1665,54.083 L 0.2571,230.8353 0,164.1596 l 25.1821,-8.7567 0.397,76.7983 z m 139.2008,-121.7437 -6.7431,-1.3788 v 19.58 l 6.7431,1.2744 z m 0,23.5092 -6.7431,-0.842 v 19.58 l 6.7431,0.736 z M 39.5779,22.4213 46.3242,21.0457 v 19.58 l -6.7463,1.2712 z m 0,23.5092 6.7463,-0.8388 v 19.58 l -6.7463,0.736 z m 0,23.4932 6.7142,-0.6878 v 20.5426 l -6.7142,0.5914 z"
     style="fill:#efe0d4;fill-rule:evenodd"
     id="path2" />
</svg>
