<svg xmlns="http://www.w3.org/2000/svg" viewBox="0 0 676.63 242.11">
  <title>Ресурс 1</title>
  <g id="Слой_2" data-name="Слой 2">
    <g id="Layer_1" data-name="Layer 1">
      <g>
        <path d="M155.56,173.43c0,16.51-7.27,24.68-19,24.68-11.35,0-18.57-8.27-18.57-20.5,0-13.21,9.15-21.9,23-21.9,14.38,0,23.66,5.43,23.66,5.43V142.5s-8.42-4.82-23.52-4.82c-23.46,0-42,15.06-42,41,0,20.36,13,37.29,35.43,37.29,7.93,0,16.4-2.75,22.07-8.76v7.06h16.88V169.53h-18Zm4.85,28.64,0-.07C160.49,202.07,160.46,202.09,160.41,202.07Z" style="fill: #004c6b"/>
        <path d="M359.63,97.27c0-6.52-3.14-14.26-10.43-17.69a19.61,19.61,0,0,0,6.67-14.49c0-13.2-10.25-20.34-24.84-20.34h-42.1v75h44.75C350.93,119.8,359.63,111,359.63,97.27Zm-14.33-15,.17-.09C345.44,82.26,345.39,82.3,345.3,82.26ZM307,60h22c5.56,0,9.42,2.76,9.42,7.45s-4.46,7.48-9.9,7.48H307Zm0,44.15V87.95h24.82c4.82,0,9.8,2.65,9.8,8.38s-5.27,7.79-9.64,7.79Z" style="fill: #004c6b"/>
        <path d="M239.61,121.52c21.85,0,40.11-17,40.11-38.86s-18.26-39.47-40.11-39.47c-22,0-40.26,17.48-40.26,39.47S217.6,121.52,239.61,121.52ZM239.75,61a21.38,21.38,0,0,1,0,42.76c-12,0-20.9-9.2-20.9-21.38C218.85,70.35,227.74,61,239.75,61Z" style="fill: #004c6b"/>
        <polygon points="600.49 139.23 580.73 139.23 553.4 172.46 553.4 139.23 535.37 139.23 535.37 214.28 553.4 214.28 553.48 181.83 579.88 214.29 601.78 214.03 570.43 175.98 600.49 139.23" style="fill: #004c6b"/>
        <path d="M482,90.29h54.51a60.33,60.33,0,0,0,.53-7.63c0-22-13.1-39.47-37.34-39.47-20.87,0-37.49,16.17-37.49,39.47,0,23.1,16.88,38.86,39.34,38.86A78.85,78.85,0,0,0,528,117.1V100.37c-4.28,1-10.53,4.29-23.54,4.29C492.11,104.66,484.76,98.63,482,90.29ZM499.89,60c11.34,0,17.35,7.33,18.94,16.84H481.3C483,67.38,489.19,60,499.89,60Z" style="fill: #004c6b"/>
        <polygon points="658.6 139.23 626.44 186.6 626.44 139.23 608.41 139.23 608.41 214.42 625.53 214.42 658.6 166 658.6 214.28 676.63 214.28 676.63 139.23 658.6 139.23" style="fill: #004c6b"/>
        <polygon points="505.96 168.29 475.52 168.29 475.52 139.23 457.49 139.23 457.49 214.28 475.52 214.28 475.52 184.76 505.96 184.76 505.96 214.28 523.98 214.28 523.98 139.23 505.96 139.23 505.96 168.29" style="fill: #004c6b"/>
        <path d="M272,202l-23.07-62.77-73.74,0v17.1h23.16v58H217v-58h17.5l22.77,58h11.35c-1.27,4.89-4.69,11.73-13.27,11.73-8.16,0-11.23-5.86-12.07-11.6H225.89c1.8,23.89,18.37,27.69,28,27.69,23.76,0,29.79-19.84,37.2-40.09l14.9-45.7h20v58h18.66v-58h23.15v-17.1H292.09Z" style="fill: #004c6b"/>
        <polygon points="395.9 185.68 395.9 139.23 377.87 139.23 377.87 214.42 395 214.42 428.06 166.92 428.06 214.28 446.1 214.28 446.1 139.23 428.06 139.23 395.9 185.68" style="fill: #004c6b"/>
        <path d="M63.95,138.27c.31-.22.29-.18.08,0Z" style="fill: #004c6b"/>
        <path d="M61.08,139.09c.12.1.12.13-.1.05Z" style="fill: #004c6b"/>
        <path d="M170.42,0V60.89H123.28V0H103.85V60.89L0,61.09,0,78s18,0,22.15,0c16.08,0,40.09,2.13,40.09,29.93,0,24.55-24.19,27.3-31.35,27.75v15.08H42.07c14.87,0,27.48,8.56,27.48,23.62,0,13.78-9.94,23.06-27.44,23.06H19.45V103.81H0V214.42H42.12c28.9,0,47.16-13.79,47.16-41.92,0-14.65-8.75-29-23.6-33.73,7.38-5.31,16.12-15.49,16.12-32.27C81.8,96,77,84.16,67.67,78h36.17V119.8h19.43V78h47.14V119.8h19.27V0Z" style="fill: #004c6b"/>
        <path d="M63.09,135.09l-.28-.07C63,134.87,63.1,134.91,63.09,135.09Z" style="fill: #004c6b"/>
        <path d="M61.08,139.09c.12.1.12.13-.1.05Z" style="fill: #004c6b"/>
        <path d="M397.51,121.53c16.47,0,27.22-11.07,27.22-25.57,0-7.6-2.3-15.55-10.7-19.73L434.09,62v57.8h18.15l-.12-75.12h-18L394.77,72.48l.1,12h.67c7.61,0,11.14,5.77,11.14,10.13,0,5.71-3.73,10.09-10.11,10.09-6.84,0-10.11-5.45-10.11-12.6V44.7h-18V90.51C368.43,109.65,376.35,121.53,397.51,121.53Z" style="fill: #004c6b"/>
      </g>
    </g>
  </g>
</svg>
