<svg width="170" height="64" viewBox="0 0 170 64" fill="none" xmlns="http://www.w3.org/2000/svg">
<path d="M15.3815 48.2588H0V63.6403H15.3815V48.2588Z" fill="#C33D32"/>
<path d="M31.691 48.2588H16.3096V63.6403H31.691V48.2588Z" fill="#C33D32"/>
<path d="M47.9996 48.2588H32.6182V63.6403H47.9996V48.2588Z" fill="#C33D32"/>
<path d="M15.3815 31.9385H0V47.3199H15.3815V31.9385Z" fill="#C33D32"/>
<path d="M15.3815 15.6289H0V31.0104H15.3815V15.6289Z" fill="#C33D32"/>
<path d="M31.691 31.9385H16.3096V47.3199H31.691V31.9385Z" fill="#C33D32"/>
<path d="M47.9996 31.9385H32.6182V47.3199H47.9996V31.9385Z" fill="#C33D32"/>
<path d="M47.9998 14.1187H47.0718V33.2645H47.9998V14.1187Z" fill="#C33D32"/>
<path d="M16.3091 31.9386V15.3522L33.7564 0V16.5855L16.3091 31.9386Z" fill="#C33D32"/>
<path d="M30.5522 31.9386V15.3522L48.0001 0V16.5855L30.5522 31.9386Z" fill="#C33D32"/>
<path d="M60 37.7991V27.5522H63.0967L64.9559 34.5418L66.7942 27.5522H69.8969V37.7991H67.9752V29.7327L65.9405 37.7991H63.9484L61.9217 29.7327V37.7991H60Z" fill="#2D3137"/>
<path d="M73.6656 32.6677C73.6656 33.8279 73.9333 34.7084 74.4697 35.3073C75.0052 35.9052 75.6854 36.2047 76.5104 36.2047C77.3354 36.2047 78.0126 35.9082 78.5411 35.3132C79.0696 34.7193 79.3334 33.8279 79.3334 32.64C79.3334 31.4659 79.0766 30.5894 78.561 30.0123C78.0463 29.4342 77.3631 29.1457 76.5104 29.1457C75.6576 29.1457 74.9695 29.4382 74.4479 30.0222C73.9264 30.6072 73.6656 31.4888 73.6656 32.6677ZM71.5337 32.7381C71.5337 31.694 71.6894 30.8185 72.0027 30.1095C72.2347 29.5879 72.552 29.1189 72.9566 28.7044C73.3582 28.29 73.8004 27.9826 74.2813 27.7823C74.9189 27.5116 75.6557 27.3767 76.4896 27.3767C77.9987 27.3767 79.2065 27.8447 80.1138 28.7818C81.0201 29.7178 81.4732 31.0207 81.4732 32.6896C81.4732 34.3435 81.023 35.6375 80.1247 36.5715C79.2253 37.5066 78.0225 37.9736 76.5173 37.9736C74.9933 37.9736 73.7816 37.5086 72.8822 36.5795C71.9829 35.6494 71.5337 34.3693 71.5337 32.7381Z" fill="#2D3137"/>
<path d="M89.6443 34.0311L91.6512 34.6677C91.3429 35.7862 90.8312 36.6172 90.1153 37.1595C89.4014 37.7019 88.4931 37.9736 87.3934 37.9736C86.032 37.9736 84.9145 37.5086 84.038 36.5795C83.1624 35.6494 82.7241 34.3782 82.7241 32.7659C82.7241 31.0604 83.1654 29.7366 84.0449 28.7927C84.9264 27.8487 86.0846 27.3767 87.5194 27.3767C88.7727 27.3767 89.7911 27.7476 90.5734 28.4883C91.0404 28.9265 91.3895 29.5552 91.6225 30.3752L89.5739 30.865C89.4529 30.3336 89.2011 29.9141 88.8163 29.6067C88.4316 29.2994 87.9636 29.1457 87.4143 29.1457C86.6547 29.1457 86.038 29.4183 85.566 29.9637C85.093 30.5091 84.856 31.3916 84.856 32.6122C84.856 33.9082 85.089 34.8303 85.5551 35.3807C86.0211 35.93 86.6269 36.2047 87.3726 36.2047C87.9229 36.2047 88.3959 36.0302 88.7915 35.6811C89.1872 35.3321 89.4718 34.7818 89.6443 34.0311Z" fill="#2D3137"/>
<path d="M93.4604 27.5511H95.5299V31.913C95.9909 31.8664 96.3033 31.7474 96.4659 31.556C96.6285 31.3647 96.8814 30.8342 97.2215 29.9626C97.6498 28.854 98.0802 28.1639 98.5145 27.8932C98.9428 27.6235 99.635 27.4886 100.59 27.4886C100.637 27.4886 100.738 27.4857 100.891 27.4817V29.0117L100.597 29.0047C100.173 29.0047 99.863 29.0573 99.6677 29.1624C99.4714 29.2675 99.3137 29.4271 99.1927 29.6413C99.0708 29.8555 98.8913 30.2958 98.6533 30.9621C98.5274 31.3161 98.3925 31.6126 98.2448 31.8496C98.099 32.0875 97.8382 32.3106 97.4654 32.5209C97.9275 32.6517 98.3082 32.9145 98.6087 33.3101C98.9091 33.7068 99.2383 34.266 99.5973 34.9889L100.995 37.798H98.5631L97.3395 35.1495C97.3216 35.1118 97.281 35.0394 97.2215 34.9323C97.1977 34.8957 97.1114 34.735 96.9627 34.4495C96.6969 33.9467 96.4788 33.6324 96.3082 33.5065C96.1387 33.3805 95.8789 33.3151 95.5299 33.3101V37.798H93.4604V27.5511Z" fill="#2D3137"/>
<path d="M107.594 33.7456L106.182 29.9419L104.798 33.7456H107.594ZM111.403 37.7991H109.152L108.258 35.4709H104.162L103.317 37.7991H101.122L105.113 27.5522H107.301L111.403 37.7991Z" fill="#2D3137"/>
<path d="M112.34 27.5513H120.49V37.7992H118.422V29.2707H114.41V37.7992H112.34V27.5513Z" fill="#2D3137"/>
<path d="M129.158 34.0311L131.165 34.6677C130.857 35.7862 130.345 36.6172 129.629 37.1595C128.915 37.7019 128.007 37.9736 126.907 37.9736C125.546 37.9736 124.428 37.5086 123.552 36.5795C122.676 35.6494 122.238 34.3782 122.238 32.7659C122.238 31.0604 122.679 29.7366 123.559 28.7927C124.44 27.8487 125.598 27.3767 127.033 27.3767C128.286 27.3767 129.305 27.7476 130.087 28.4883C130.554 28.9265 130.903 29.5552 131.135 30.3752L129.088 30.865C128.967 30.3336 128.715 29.9141 128.33 29.6067C127.945 29.2994 127.477 29.1457 126.928 29.1457C126.168 29.1457 125.552 29.4183 125.08 29.9637C124.607 30.5091 124.37 31.3916 124.37 32.6122C124.37 33.9082 124.603 34.8303 125.069 35.3807C125.535 35.93 126.141 36.2047 126.886 36.2047C127.437 36.2047 127.91 36.0302 128.305 35.6811C128.701 35.3321 128.985 34.7818 129.158 34.0311Z" fill="#2D3137"/>
<path d="M134.89 37.7991V29.2855H131.85V27.5522H139.993V29.2855H136.96V37.7991H134.89Z" fill="#2D3137"/>
<path d="M143.397 29.2855V32.1928H144.528C145.344 32.1928 145.889 32.1402 146.164 32.0322C146.439 31.9251 146.654 31.7575 146.811 31.5294C146.967 31.3014 147.045 31.0356 147.045 30.7322C147.045 30.3594 146.936 30.052 146.716 29.81C146.498 29.5681 146.22 29.4164 145.885 29.3559C145.638 29.3093 145.141 29.2855 144.396 29.2855H143.397ZM141.329 37.7991V27.5522H144.648C145.906 27.5522 146.727 27.6038 147.108 27.7059C147.696 27.8596 148.188 28.1938 148.584 28.7084C148.98 29.224 149.178 29.8894 149.178 30.7045C149.178 31.3341 149.064 31.8626 148.835 32.291C148.607 32.7203 148.317 33.0564 147.965 33.3014C147.613 33.5453 147.256 33.7079 146.892 33.7872C146.399 33.8844 145.683 33.934 144.747 33.934H143.398V37.7991H141.329Z" fill="#2D3137"/>
<path d="M152.399 32.6677C152.399 33.8279 152.667 34.7084 153.204 35.3073C153.739 35.9052 154.419 36.2047 155.244 36.2047C156.069 36.2047 156.746 35.9082 157.275 35.3132C157.804 34.7193 158.067 33.8279 158.067 32.64C158.067 31.4659 157.81 30.5894 157.295 30.0123C156.78 29.4342 156.097 29.1457 155.244 29.1457C154.392 29.1457 153.703 29.4382 153.182 30.0222C152.66 30.6072 152.399 31.4888 152.399 32.6677ZM150.268 32.7381C150.268 31.694 150.423 30.8185 150.737 30.1095C150.969 29.5879 151.286 29.1189 151.69 28.7044C152.092 28.29 152.534 27.9826 153.015 27.7823C153.653 27.5116 154.39 27.3767 155.223 27.3767C156.733 27.3767 157.94 27.8447 158.848 28.7818C159.754 29.7178 160.207 31.0207 160.207 32.6896C160.207 34.3435 159.757 35.6375 158.859 36.5715C157.959 37.5066 156.756 37.9736 155.251 37.9736C153.728 37.9736 152.515 37.5086 151.616 36.5795C150.717 35.6494 150.268 34.3693 150.268 32.7381Z" fill="#2D3137"/>
<path d="M167.163 25H168.12C168.064 25.6336 167.842 26.1314 167.452 26.4923C167.064 26.8533 166.558 27.0337 165.939 27.0337C165.32 27.0337 164.815 26.8533 164.426 26.4923C164.037 26.1314 163.814 25.6336 163.759 25H164.716C164.748 25.3312 164.864 25.5811 165.066 25.7516C165.266 25.9212 165.558 26.0064 165.939 26.0064C166.321 26.0064 166.613 25.9212 166.813 25.7516C167.012 25.5811 167.13 25.3322 167.163 25ZM161.85 27.5513H163.787V34.3733L167.938 27.5513H170V37.7982H168.064V31.1091L163.92 37.7982H161.85V27.5513Z" fill="#2D3137"/>
</svg>
